<svg width="18" height="18" viewBox="0 0 18 18" fill="none" xmlns="http://www.w3.org/2000/svg">
<path d="M9 10.875V9.75C9 9.33578 9.33578 9 9.75 9H15.375M13.875 11.25H15C15.4142 11.25 15.75 11.5858 15.75 12V15C15.75 15.4142 15.4142 15.75 15 15.75H13.875M13.5 13.875C13.5 13.4608 13.1642 13.125 12.75 13.125H12C11.5858 13.125 11.25 12.7892 11.25 12.375V11.25M9 13.125V14.625M10.875 15.75H11.625" stroke="#3981F8" stroke-width="1.5" stroke-linecap="round" stroke-linejoin="round"/>
<path d="M2.25 9H6.75" stroke="#3981F8" stroke-width="1.5" stroke-linecap="round" stroke-linejoin="round"/>
<path d="M9 2.25V6" stroke="#3981F8" stroke-width="1.5" stroke-linecap="round" stroke-linejoin="round"/>
<path d="M6.75 6V3C6.75 2.58579 6.41421 2.25 6 2.25H3C2.58579 2.25 2.25 2.58579 2.25 3V6C2.25 6.41421 2.58579 6.75 3 6.75H6C6.41421 6.75 6.75 6.41421 6.75 6Z" stroke="#3981F8" stroke-width="1.5"/>
<path d="M6.75 15V12C6.75 11.5858 6.41421 11.25 6 11.25H3C2.58579 11.25 2.25 11.5858 2.25 12V15C2.25 15.4142 2.58579 15.75 3 15.75H6C6.41421 15.75 6.75 15.4142 6.75 15Z" stroke="#3981F8" stroke-width="1.5"/>
<path d="M15.75 6V3C15.75 2.58579 15.4142 2.25 15 2.25H12C11.5858 2.25 11.25 2.58579 11.25 3V6C11.25 6.41421 11.5858 6.75 12 6.75H15C15.4142 6.75 15.75 6.41421 15.75 6Z" stroke="#3981F8" stroke-width="1.5"/>
</svg>
