<svg width="20" height="20" viewBox="0 0 20 20" fill="none" xmlns="http://www.w3.org/2000/svg">
<path fill-rule="evenodd" clip-rule="evenodd" d="M11.9149 2.30604C12.0153 1.99868 12.3335 1.81864 12.6487 1.89092L15.7872 2.61076C16.6339 2.74961 17.3408 3.35384 17.5932 4.19031C18.0036 5.55041 18.4739 7.31299 18.7411 9.10392C19.0064 10.8818 19.0821 12.7519 18.6537 14.2979C18.6485 14.3167 18.6424 14.3352 18.6355 14.3534C18.3355 15.1413 17.7239 16.0532 17.0329 16.7693C16.6844 17.1303 16.2987 17.4594 15.9005 17.7022C15.5099 17.9403 15.0587 18.1251 14.5923 18.1251C14.3904 18.1251 14.201 18.0276 14.0837 17.8634L12.0458 15.0102C12.8088 14.8653 13.5849 14.6399 14.3889 14.3344C14.7116 14.2118 14.8737 13.8508 14.7511 13.5281C14.6284 13.2055 14.2674 13.0433 13.9448 13.1659C11.1712 14.2201 8.82918 14.2201 6.05557 13.1659C5.73291 13.0433 5.37193 13.2055 5.24929 13.5281C5.12666 13.8508 5.28881 14.2118 5.61148 14.3344C6.42083 14.642 7.20209 14.8683 7.97011 15.0132L5.93422 17.8634C5.8169 18.0276 5.62748 18.1251 5.42563 18.1251C4.95965 18.1251 4.50753 17.9406 4.11573 17.7029C3.71614 17.4605 3.32822 17.1318 2.97733 16.7708C2.28171 16.0553 1.66437 15.1429 1.36373 14.3534C1.3568 14.3352 1.35073 14.3167 1.34553 14.2979C0.917134 12.7519 0.992859 10.8818 1.25814 9.10392C1.52537 7.31299 1.9956 5.55041 2.40605 4.19031C2.65852 3.3537 3.36565 2.7494 4.21243 2.61069L7.37004 1.89077C7.68639 1.81864 8.00533 2.00059 8.10423 2.30962L8.78994 4.45208C9.19685 4.40104 9.59743 4.3751 10 4.3751C10.4038 4.3751 10.8055 4.4012 11.2138 4.45254L11.9149 2.30604ZM6.25002 7.08334C5.55966 7.08334 5.00002 7.64298 5.00002 8.33334C5.00002 9.02367 5.55966 9.58334 6.25002 9.58334H6.25843C6.94878 9.58334 7.50843 9.02367 7.50843 8.33334C7.50843 7.64298 6.94878 7.08334 6.25843 7.08334H6.25002ZM13.7416 7.08334C13.0513 7.08334 12.4916 7.64298 12.4916 8.33334C12.4916 9.02367 13.0513 9.58334 13.7416 9.58334H13.75C14.4404 9.58334 15 9.02367 15 8.33334C15 7.64298 14.4404 7.08334 13.75 7.08334H13.7416Z" fill="#777879"/>
</svg>
