<svg width="20" height="20" viewBox="0 0 20 20" fill="none" xmlns="http://www.w3.org/2000/svg">
<path d="M3.74998 1.4585C2.48433 1.4585 1.45831 2.48451 1.45831 3.75016V16.2502C1.45831 17.5158 2.48433 18.5418 3.74998 18.5418H8.97115L8.97106 12.2914H8.33331C7.75801 12.2914 7.29165 11.825 7.29165 11.2497C7.29165 10.6744 7.75801 10.2081 8.33331 10.2081H8.96715L8.95873 7.92687C8.95315 6.42719 10.1673 5.2085 11.667 5.2085H14.1666C14.742 5.2085 15.2083 5.67486 15.2083 6.25016C15.2083 6.82546 14.742 7.29183 14.1666 7.29183H11.667C11.3209 7.29183 11.0407 7.57306 11.0421 7.91915L11.0505 10.2081H12.4999C13.0751 10.2081 13.5416 10.6744 13.5416 11.2497C13.5416 11.825 13.0751 12.2914 12.4999 12.2914H11.0544L11.0545 18.5418H16.25C17.5156 18.5418 18.5416 17.5158 18.5416 16.2502V3.75016C18.5416 2.48451 17.5156 1.4585 16.25 1.4585H3.74998Z" fill="#777879"/>
</svg>
