<svg width="20" height="20" viewBox="0 0 20 20" fill="none" xmlns="http://www.w3.org/2000/svg">
<path fill-rule="evenodd" clip-rule="evenodd" d="M18.9431 2.63557C18.9933 2.40935 18.9143 2.17387 18.7377 2.02378C18.5612 1.8737 18.316 1.83364 18.1008 1.91972L1.43454 8.58642C1.20977 8.67625 1.05714 8.88792 1.04276 9.12958C1.02839 9.37125 1.15486 9.59942 1.36738 9.71533L5.68353 12.0697L6.46683 16.7694C6.50641 17.0069 6.67885 17.2005 6.91016 17.2672C7.14147 17.3339 7.39052 17.2618 7.55046 17.0819L9.67566 14.6911L7.90873 12.7364C7.68233 12.4859 7.69577 12.1009 7.93909 11.8669L11.4807 8.45992L12.2257 7.69848C12.467 7.45176 12.8627 7.44744 13.1095 7.68884C13.3562 7.93025 13.3605 8.32595 13.1191 8.57267L12.3675 9.34083C12.3631 9.34533 12.3586 9.34975 12.3541 9.35417L9.24232 12.3477L11.8632 15.2472L14.5581 17.9419C14.7193 18.1033 14.9557 18.1638 15.1747 18.1001C15.3937 18.0363 15.5607 17.8583 15.6101 17.6356L18.9431 2.63557Z" fill="#777879"/>
</svg>
