<svg width="20" height="20" viewBox="0 0 20 20" fill="none" xmlns="http://www.w3.org/2000/svg">
<path fill-rule="evenodd" clip-rule="evenodd" d="M3.75001 1.4585C2.48436 1.4585 1.45834 2.48451 1.45834 3.75016V16.2502C1.45834 17.5158 2.48436 18.5418 3.75001 18.5418H16.25C17.5157 18.5418 18.5417 17.5158 18.5417 16.2502V3.75016C18.5417 2.48451 17.5157 1.4585 16.25 1.4585H3.75001ZM5.83334 5.2085C5.59864 5.2085 5.38372 5.33999 5.27687 5.54896C5.17002 5.75794 5.18925 6.00915 5.32667 6.19943L8.50968 10.6067L5.3914 13.7249C5.14733 13.969 5.14733 14.3647 5.3914 14.6087C5.63549 14.8528 6.03121 14.8528 6.27529 14.6087L9.25101 11.6331L11.3452 14.5327C11.4627 14.6955 11.6512 14.7918 11.8518 14.7918H14.1667C14.4013 14.7918 14.6163 14.6603 14.7232 14.4513C14.83 14.2424 14.8108 13.9912 14.6733 13.8009L11.4903 9.39366L14.6086 6.27544C14.8527 6.03136 14.8527 5.63563 14.6086 5.39155C14.3645 5.14748 13.9688 5.14748 13.7248 5.39155L10.749 8.36725L8.65484 5.46756C8.53734 5.30487 8.34884 5.2085 8.14816 5.2085H5.83334Z" fill="#777879"/>
</svg>
