<svg width="20" height="20" viewBox="0 0 20 20" fill="none" xmlns="http://www.w3.org/2000/svg">
<path fill-rule="evenodd" clip-rule="evenodd" d="M9.99999 2.7085C7.93858 2.7085 5.97752 2.84151 4.20625 3.08155C2.32062 3.33708 1.04166 4.99379 1.04166 6.8324V13.1679C1.04166 15.0065 2.32062 16.6632 4.20625 16.9187C5.97752 17.1588 7.93858 17.2918 9.99999 17.2918C12.0614 17.2918 14.0225 17.1588 15.7937 16.9187C17.6793 16.6632 18.9583 15.0065 18.9583 13.1679V6.83241C18.9583 4.99379 17.6793 3.33708 15.7937 3.08155C14.0225 2.84151 12.0614 2.7085 9.99999 2.7085ZM8.6549 6.96423C8.46182 6.84838 8.22133 6.84535 8.02539 6.95629C7.82944 7.06723 7.70832 7.275 7.70832 7.50016V12.5002C7.70832 12.7253 7.82944 12.9331 8.02539 13.044C8.22133 13.155 8.46182 13.1519 8.6549 13.0361L12.8216 10.5361C13.0098 10.4232 13.125 10.2197 13.125 10.0002C13.125 9.78066 13.0098 9.57716 12.8216 9.46425L8.6549 6.96423Z" fill="#777879"/>
</svg>
