<svg width="25" height="24" viewBox="0 0 25 24" fill="none" xmlns="http://www.w3.org/2000/svg">
<path fill-rule="evenodd" clip-rule="evenodd" d="M15.434 1.55452C15.958 1.37987 16.5243 1.66303 16.6989 2.18697L18.1989 6.68697C18.3736 7.21092 18.0904 7.77724 17.5665 7.95188C17.0425 8.12653 16.4762 7.84337 16.3016 7.31943L14.8016 2.81943C14.6269 2.29549 14.9101 1.72917 15.434 1.55452ZM9.52498 1.54168C10.056 1.6934 10.3635 2.24689 10.2118 2.77792L8.21178 9.77792C8.06006 10.309 7.50657 10.6164 6.97554 10.4647C6.4445 10.313 6.13701 9.75951 6.28873 9.22848L8.28873 2.22848C8.44046 1.69744 8.99394 1.38995 9.52498 1.54168Z" fill="#1CAD54"/>
<path fill-rule="evenodd" clip-rule="evenodd" d="M18.2501 22.5C18.8024 22.5 19.2501 22.0523 19.2501 21.5V18H20.2501C20.6546 18 21.0192 17.7564 21.174 17.3827C21.3288 17.009 21.2432 16.5789 20.9572 16.2929L18.9572 14.2929C18.5667 13.9024 17.9335 13.9024 17.543 14.2929L15.543 16.2929C15.257 16.5789 15.1714 17.009 15.3262 17.3827C15.481 17.7564 15.8456 18 16.2501 18H17.2501V21.5C17.2501 22.0523 17.6978 22.5 18.2501 22.5Z" fill="#1CAD54"/>
<path d="M3.25 6.75293C2.2835 6.75293 1.5 7.53643 1.5 8.50293V10.5029C1.5 10.8258 1.70657 11.1124 2.01283 11.2144L3.10471 11.5784L4.84893 19.8634C5.01942 20.6732 5.73384 21.2529 6.56139 21.2529H15.75V19.4494C14.9469 19.2855 14.2622 18.7334 13.9403 17.9565C13.5534 17.0223 13.7673 15.947 14.4823 15.232L16.4823 13.232C17.4586 12.2557 19.0415 12.2557 20.0178 13.232L20.8681 14.0823L21.3953 11.5784L22.4872 11.2144C22.7934 11.1124 23 10.8258 23 10.5029V8.50293C23 7.53643 22.2165 6.75293 21.25 6.75293H3.25Z" fill="#1CAD54"/>
</svg>
