<svg width="20" height="20" viewBox="0 0 20 20" fill="none" xmlns="http://www.w3.org/2000/svg">
<path fill-rule="evenodd" clip-rule="evenodd" d="M12.6533 1.70974C13.09 1.5642 13.5619 1.80016 13.7074 2.23678L14.9574 5.98678C15.103 6.42341 14.867 6.89534 14.4304 7.04087C13.9938 7.18641 13.5218 6.95045 13.3763 6.51383L12.1263 2.76383C11.9808 2.32721 12.2168 1.85528 12.6533 1.70974ZM7.72915 1.69904C8.17168 1.82547 8.42792 2.28671 8.30148 2.72924L6.63482 8.56258C6.50838 9.00508 6.04714 9.26133 5.60462 9.13491C5.16208 9.0085 4.90584 8.54725 5.03228 8.1047L6.69894 2.27137C6.82538 1.82885 7.28662 1.5726 7.72915 1.69904Z" fill="#777879"/>
<path fill-rule="evenodd" clip-rule="evenodd" d="M2.49996 6.04175C1.69454 6.04175 1.04163 6.69466 1.04163 7.50008V9.16675C1.04163 9.43575 1.21377 9.67458 1.46898 9.75966L2.37888 10.063L3.8324 16.9672C3.97448 17.642 4.56983 18.1251 5.25945 18.1251H14.7405C15.4301 18.1251 16.0255 17.642 16.1675 16.9672L17.621 10.063L18.531 9.75966C18.7861 9.67458 18.9583 9.43575 18.9583 9.16675V7.50008C18.9583 6.69466 18.3054 6.04175 17.5 6.04175H2.49996ZM8.33329 9.37508C7.98812 9.37508 7.70829 9.65491 7.70829 10.0001C7.70829 10.3452 7.98812 10.6251 8.33329 10.6251H11.6666C12.0118 10.6251 12.2916 10.3452 12.2916 10.0001C12.2916 9.65491 12.0118 9.37508 11.6666 9.37508H8.33329Z" fill="#777879"/>
</svg>
