<svg width="18" height="18" viewBox="0 0 18 18" fill="none" xmlns="http://www.w3.org/2000/svg">
<g clip-path="url(#clip0_14205_2824)">
<path d="M9 16.5C4.85783 16.5 1.5 13.1421 1.5 9C1.5 4.85786 4.85786 1.5 9 1.5C12.3582 1.5 15.1693 3.70717 16.125 6.75H14.25" stroke="#1CAD7F" stroke-width="1.5" stroke-linecap="round" stroke-linejoin="round"/>
<path d="M9 6V9L10.5 10.5" stroke="#1CAD7F" stroke-width="1.5" stroke-linecap="round" stroke-linejoin="round"/>
<path d="M16.4663 9.75C16.4886 9.50317 16.5 9.25298 16.5 9M11.25 16.5C11.5062 16.4157 11.7565 16.3173 12 16.2058M15.5929 12.75C15.7376 12.4713 15.8666 12.1825 15.9788 11.8846M13.6444 15.1719C13.9027 14.9581 14.1473 14.7268 14.3766 14.4799" stroke="#1CAD7F" stroke-width="1.5" stroke-linecap="round" stroke-linejoin="round"/>
</g>
<defs>
<clipPath id="clip0_14205_2824">
<rect width="18" height="18" fill="white"/>
</clipPath>
</defs>
</svg>
