<svg width="16" height="16" viewBox="0 0 16 16" fill="none" xmlns="http://www.w3.org/2000/svg">
<path d="M14 7.36756V4.08233C14 3.56566 13.6097 3.13684 13.1034 3.04884C11.0633 2.69422 9.36973 1.90531 8.54347 1.46786C8.20513 1.28871 7.79487 1.28871 7.45653 1.46786C6.63028 1.90531 4.93668 2.69422 2.89659 3.04884C2.39035 3.13684 2 3.56566 2 4.08233V7.36756C2 11.6532 6.35841 13.9908 7.64593 14.5878C7.87313 14.6932 8.12687 14.6932 8.35407 14.5878C9.6416 13.9908 14 11.6532 14 7.36756Z" stroke="#3981F8" stroke-width="1.5" stroke-linecap="round"/>
<path d="M9.66671 7.66667C9.66671 8.58713 8.92051 9.33333 8.00004 9.33333C7.07957 9.33333 6.33337 8.58713 6.33337 7.66667C6.33337 6.7462 7.07957 6 8.00004 6C8.92051 6 9.66671 6.7462 9.66671 7.66667Z" stroke="#3981F8" stroke-width="1.5" stroke-linecap="round" stroke-linejoin="round"/>
</svg>
