<svg width="60" height="60" viewBox="0 0 60 60" fill="none" xmlns="http://www.w3.org/2000/svg">
<g opacity="0.5">
<path d="M52.2844 34.72C44.7404 36.665 39.1667 43.515 39.1667 51.6667C39.1667 53.0473 40.2861 54.1667 41.6667 54.1667H71.6667C73.0474 54.1667 74.1667 53.0473 74.1667 51.6667C74.1667 43.515 68.5931 36.665 61.0491 34.72C63.8994 33.1657 65.8334 30.142 65.8334 26.6667C65.8334 21.604 61.7294 17.5 56.6667 17.5C51.6041 17.5 47.5001 21.604 47.5001 26.6667C47.5001 30.142 49.4341 33.1657 52.2844 34.72Z" fill="#1C1E1F"/>
<path d="M18.9509 3.0534C11.4068 4.99863 5.83325 11.8485 5.83325 20.0002C5.83325 21.3808 6.95255 22.5002 8.33325 22.5002H38.3333C39.7139 22.5002 40.8333 21.3808 40.8333 20.0002C40.8333 11.8485 35.2596 4.99863 27.7156 3.0534C30.566 1.499 32.4999 -1.52457 32.4999 -4.99984C32.4999 -10.0624 28.3959 -14.1665 23.3333 -14.1665C18.2707 -14.1665 14.1666 -10.0624 14.1666 -4.99984C14.1666 -1.52457 16.1005 1.499 18.9509 3.0534Z" fill="#1C1E1F"/>
<path fill-rule="evenodd" clip-rule="evenodd" d="M11.6666 28.3335C13.5075 28.3335 14.9999 29.8258 14.9999 31.6668C14.9999 37.4755 18.6988 42.4068 23.8736 44.2385L23.4328 42.4752C22.9863 40.6892 24.0722 38.8795 25.8581 38.4332C27.6441 37.9865 29.4539 39.0725 29.9004 40.8585L31.5671 47.5252C31.816 48.5208 31.5923 49.5758 30.9606 50.3848C30.3289 51.1938 29.3597 51.6668 28.3333 51.6668C17.278 51.6668 8.33325 42.7222 8.33325 31.6668C8.33325 29.8258 9.82565 28.3335 11.6666 28.3335Z" fill="#1C1E1F"/>
<path fill-rule="evenodd" clip-rule="evenodd" d="M42.3727 -10.3845C43.0043 -11.1936 43.9737 -11.6665 45 -11.6665C56.0553 -11.6665 65 -2.72174 65 8.3335C65 10.1744 63.5077 11.6668 61.6667 11.6668C59.8257 11.6668 58.3333 10.1744 58.3333 8.3335C58.3333 2.52486 54.6347 -2.40664 49.4597 -4.2381L49.9007 -2.47497C50.347 -0.688969 49.261 1.1208 47.475 1.5673C45.689 2.0138 43.8793 0.927931 43.433 -0.858036L41.7663 -7.5247C41.5173 -8.52054 41.741 -9.5755 42.3727 -10.3845Z" fill="#1C1E1F"/>
</g>
</svg>
