<svg width="18" height="18" viewBox="0 0 18 18" fill="none" xmlns="http://www.w3.org/2000/svg">
<g clip-path="url(#clip0_14050_915)">
<path d="M8.25 16.5C7.42157 16.5 6.75 15.8284 6.75 15V8.25103C6.75 7.4222 7.42222 6.75045 8.25105 6.75104L15.001 6.7558C15.829 6.75639 16.5 7.42779 16.5 8.25583V15C16.5 15.8284 15.8284 16.5 15 16.5H8.25Z" stroke="#494B4C" stroke-width="1.5" stroke-linecap="round" stroke-linejoin="round"/>
<path d="M12.75 6.32141V3.00679C12.75 2.17877 12.079 1.50737 11.251 1.50679L3.00105 1.50104C2.17221 1.50046 1.5 2.1722 1.5 3.00104V11.25C1.5 12.0784 2.17157 12.75 3 12.75H6.32143" stroke="#494B4C" stroke-width="1.5" stroke-linejoin="round"/>
</g>
<defs>
<clipPath id="clip0_14050_915">
<rect width="18" height="18" fill="white"/>
</clipPath>
</defs>
</svg>
