<svg width="119" height="48" viewBox="0 0 119 48" fill="none" xmlns="http://www.w3.org/2000/svg">
<g clip-path="url(#clip0_14205_3242)">
<path d="M5.32864 0L24.3469 23.3021H13.0005L5.32864 0Z" fill="white"/>
<path opacity="0.85" d="M19.0183 46.8597L0 23.5576H11.3464L19.0183 46.8597Z" fill="#5EA5FC"/>
<path opacity="0.85" d="M8.02643 1.14014L27.0447 24.4423H15.6983L8.02643 1.14014Z" fill="#5EA5FC"/>
<path d="M21.716 47.9999L2.69778 24.6978H14.0442L21.716 47.9999Z" fill="white"/>
<path d="M33.4973 32.5243L44.8704 19.4615C44.9915 19.3233 45.0703 19.1528 45.0974 18.9706C45.1244 18.7885 45.0986 18.6023 45.0231 18.4345C44.9475 18.2667 44.8253 18.1244 44.6713 18.0247C44.5172 17.925 44.3378 17.8721 44.1546 17.8724H35.5712C35.3187 17.872 35.0766 17.7708 34.8982 17.5911C34.7197 17.4114 34.6195 17.1678 34.6195 16.9139V13.66C34.6195 13.4062 34.7198 13.1628 34.8983 12.9834C35.0767 12.8039 35.3188 12.7031 35.5712 12.7031H53.1176C53.3702 12.7031 53.6124 12.8039 53.7912 12.9833C53.9699 13.1627 54.0705 13.406 54.071 13.66V16.9307C54.0703 17.1604 53.9878 17.3823 53.8385 17.5563L42.5807 30.619C42.4613 30.7578 42.384 30.9282 42.358 31.1099C42.332 31.2916 42.3585 31.477 42.4342 31.644C42.51 31.811 42.6318 31.9526 42.7853 32.052C42.9387 32.1515 43.1174 32.2045 43.2999 32.2048H53.1176C53.3702 32.2048 53.6124 32.3056 53.7912 32.485C53.9699 32.6643 54.0705 32.9077 54.071 33.1616V36.4206C54.071 36.6748 53.9705 36.9186 53.7918 37.0984C53.613 37.2781 53.3705 37.3791 53.1176 37.3791H34.2181C33.9656 37.3787 33.7235 37.2775 33.5451 37.0978C33.3667 36.9181 33.2665 36.6745 33.2665 36.4206V33.1549C33.2651 32.9236 33.347 32.6995 33.4973 32.5243Z" fill="white"/>
<path d="M77.0581 33.2339C77.0581 34.5018 77.1696 35.4447 77.3926 36.0624C77.4629 36.2524 77.5298 36.4273 77.5934 36.5837C77.6293 36.6709 77.6434 36.7658 77.6343 36.8598C77.6252 36.9538 77.5931 37.0441 77.5411 37.1228C77.489 37.2014 77.4184 37.2659 77.3357 37.3106C77.2529 37.3553 77.1605 37.3788 77.0665 37.3791H72.0489C71.9396 37.3785 71.8327 37.3466 71.7409 37.287C71.649 37.2274 71.576 37.1427 71.5305 37.0428C71.4181 36.7974 71.3334 36.5402 71.2779 36.2759L71.2344 36.0758C71.2142 35.983 71.1715 35.8967 71.1102 35.8244C71.0488 35.7521 70.9708 35.6961 70.8828 35.6614C70.7949 35.6266 70.6997 35.6142 70.6059 35.6252C70.512 35.6362 70.4223 35.6702 70.3446 35.7244C68.2297 37.2067 65.7073 37.988 63.1294 37.9592C62.0161 37.967 60.9095 37.7857 59.8562 37.4228C58.8824 37.0913 57.9837 36.5689 57.212 35.8858C56.4652 35.2066 55.8681 34.3778 55.4592 33.4525C55.0051 32.4333 54.7768 31.3271 54.7902 30.2104C54.7695 29.1238 54.9984 28.0471 55.4592 27.0641C55.8705 26.2035 56.4568 25.4393 57.1802 24.8208C57.9025 24.2136 58.7123 23.7203 59.5819 23.3578C60.4509 22.9907 61.3518 22.7053 62.273 22.5052L64.7467 22.0175L66.4192 21.6997C67.0169 21.5876 67.6067 21.466 68.1887 21.3348C68.7708 21.2036 69.3127 21.0736 69.8144 20.9447C70.1489 20.8572 70.4595 20.7698 70.746 20.6823C70.8627 20.6465 70.9647 20.5738 71.0371 20.4751C71.1094 20.3763 71.1481 20.2568 71.1474 20.1341V19.823C71.1474 18.6201 70.6947 17.7989 69.7894 17.3595C68.884 16.92 67.7846 16.7008 66.4911 16.702C64.745 16.702 63.5486 16.9783 62.9019 17.531C62.3444 18.0074 62.0277 18.7827 61.9519 19.8567C61.9404 20.0046 61.8722 20.1423 61.7618 20.2407C61.6514 20.3392 61.5073 20.3908 61.3598 20.3847L56.5714 20.193C56.4961 20.1902 56.4221 20.1724 56.3538 20.1406C56.2854 20.1088 56.224 20.0637 56.1731 20.0078C56.1222 19.952 56.0829 19.8865 56.0574 19.8152C56.0318 19.7439 56.0207 19.6683 56.0245 19.5926C56.059 18.496 56.3525 17.4233 56.8808 16.4632C57.4545 15.4624 58.2515 14.6092 59.209 13.971C60.2293 13.2991 61.3628 12.8199 62.554 12.5568C63.8435 12.2621 65.1621 12.1159 66.4845 12.1212C67.7825 12.1193 69.0791 12.2086 70.3647 12.3886C71.5598 12.5457 72.713 12.9352 73.7599 13.5355C74.7647 14.1222 75.5942 14.9695 76.1617 15.9889C76.7593 17.0461 77.0581 18.4525 77.0581 20.2081V33.2339ZM71.1408 25.0411C70.2534 25.477 69.3045 25.7731 68.3276 25.9189L65.0779 26.6016C64.0711 26.7845 63.0981 27.1214 62.1928 27.6005C61.4 28.04 61.0036 28.8449 61.0036 30.0153C60.9903 30.4528 61.0852 30.8869 61.2799 31.2784C61.4746 31.67 61.763 32.0068 62.1192 32.2586C62.864 32.8124 63.7694 33.0887 64.8353 33.0876C65.5548 33.0828 66.2711 32.9925 66.9695 32.8185C67.684 32.6524 68.3704 32.3815 69.0066 32.0147C69.6141 31.663 70.1362 31.1799 70.5353 30.6005C70.9441 29.9977 71.1557 29.2817 71.1408 28.5523V25.0411Z" fill="white"/>
<path d="M81.104 12.7028H84.5878C84.9102 12.7032 85.2192 12.8321 85.4471 13.0613C85.675 13.2905 85.8033 13.6012 85.8037 13.9253V16.1114H85.8991C86.6105 14.6809 87.614 13.6568 88.9096 13.0391C89.9278 12.5657 91.02 12.2738 92.1376 12.1764C92.3069 12.1595 92.4778 12.1784 92.6394 12.232C92.801 12.2856 92.9496 12.3726 93.0757 12.4875C93.2017 12.6024 93.3024 12.7425 93.3713 12.8989C93.4402 13.0553 93.4757 13.2245 93.4756 13.3956V17.001C93.4739 17.306 93.3592 17.5994 93.1538 17.8239C92.9484 18.0484 92.6672 18.1879 92.365 18.2151C91.7648 18.2745 91.171 18.3871 90.5905 18.5514C89.6991 18.7962 88.8658 19.2188 88.1403 19.7941C87.401 20.3957 86.816 21.1667 86.4343 22.0424C86.015 22.9685 85.8049 24.0985 85.8037 25.4326V36.1562C85.8037 36.4806 85.6757 36.7918 85.4477 37.0213C85.2197 37.2508 84.9104 37.38 84.5878 37.3804H81.104C80.781 37.3804 80.4713 37.2515 80.243 37.0219C80.0146 36.7923 79.8864 36.4809 79.8864 36.1562V13.9253C79.8868 13.6009 80.0153 13.2899 80.2436 13.0607C80.4719 12.8315 80.7813 12.7028 81.104 12.7028Z" fill="white"/>
<path d="M96.62 12.703H100.154C100.47 12.703 100.773 12.8291 100.997 13.0536C101.22 13.2781 101.346 13.5826 101.347 13.9003V14.8H101.444C102.342 13.9589 103.385 13.2893 104.523 12.8241C105.767 12.3366 107.093 12.0979 108.428 12.1212C109.913 12.1051 111.379 12.4568 112.696 13.1453C113.99 13.8296 115.129 14.7761 116.041 15.925C117.003 17.1491 117.74 18.5364 118.216 20.0214C119.25 23.2893 119.25 26.7995 118.216 30.0674C117.74 31.5524 117.003 32.9397 116.041 34.1638C115.123 35.3175 113.975 36.2645 112.67 36.9435C111.324 37.6355 109.832 37.987 108.321 37.9676C106.537 37.9676 105.122 37.6913 104.076 37.1386C103.765 36.9754 103.463 36.7958 103.171 36.6004C102.991 36.4816 102.783 36.4141 102.568 36.4052C102.353 36.3963 102.139 36.4463 101.95 36.5499C101.761 36.6536 101.604 36.8069 101.495 36.9935C101.386 37.1801 101.329 37.393 101.331 37.6094V44.0853C101.331 44.4033 101.206 44.7083 100.982 44.9331C100.759 45.158 100.455 45.2843 100.139 45.2843H96.62C96.304 45.2839 96.0011 45.1573 95.7778 44.9325C95.5546 44.7077 95.4291 44.403 95.4291 44.0853V13.9003C95.4291 13.7431 95.4599 13.5874 95.5198 13.4421C95.5796 13.2969 95.6674 13.1649 95.7779 13.0537C95.8885 12.9425 96.0198 12.8543 96.1643 12.7942C96.3087 12.734 96.4636 12.703 96.62 12.703ZM107.809 32.5024C108.909 32.5024 109.83 32.2826 110.574 31.8432C111.301 31.4196 111.916 30.8268 112.368 30.1145C112.831 29.3735 113.16 28.5559 113.339 27.6997C113.727 25.9493 113.727 24.1345 113.339 22.3841C113.159 21.5285 112.831 20.7115 112.368 19.971C111.917 19.2575 111.301 18.6635 110.574 18.2389C109.83 17.7994 108.909 17.5803 107.809 17.5814C106.677 17.5814 105.747 17.8006 105.019 18.2389C104.302 18.6681 103.696 19.2615 103.25 19.971C102.787 20.7112 102.458 21.5282 102.28 22.3841C101.892 24.1345 101.892 25.9493 102.28 27.6997C102.458 28.5561 102.787 29.3738 103.25 30.1145C103.696 30.8234 104.302 31.4163 105.019 31.8448C105.746 32.2832 106.676 32.5024 107.809 32.5024Z" fill="white"/>
</g>
<defs>
<clipPath id="clip0_14205_3242">
<rect width="119" height="48" fill="white"/>
</clipPath>
</defs>
</svg>
