<svg width="16" height="16" viewBox="0 0 16 16" fill="none" xmlns="http://www.w3.org/2000/svg">
<path fill-rule="evenodd" clip-rule="evenodd" d="M7.14826 0.833008C6.6461 0.833008 6.20028 1.15434 6.04148 1.63074L5.58315 3.00574L4.87423 3.45411L3.37983 3.08435C2.88066 2.96084 2.35948 3.17872 2.09673 3.62076L1.18727 5.15082C0.90046 5.63335 0.997933 6.25171 1.41926 6.62262L2.44307 7.52387V8.47547L1.41957 9.37674C0.998346 9.74767 0.90094 10.3659 1.18771 10.8485L2.09722 12.3786C2.35996 12.8206 2.88114 13.0385 3.38032 12.915L4.88971 12.5415L5.52354 12.8969L5.93679 14.3241C6.08123 14.823 6.53806 15.1663 7.0574 15.1663H8.94526C9.46466 15.1663 9.92146 14.823 10.0659 14.3241L10.4792 12.8969L11.1125 12.5415L12.6219 12.915C13.1211 13.0385 13.6423 12.8206 13.905 12.3786L14.8317 10.8195C15.1047 10.3601 15.0307 9.77381 14.6519 9.39667L13.5951 8.34447L13.5954 7.65507L14.6524 6.60265C15.0312 6.22553 15.1053 5.63925 14.8321 5.17979L13.9055 3.62076C13.6427 3.17872 13.1215 2.96084 12.6224 3.08435L11.128 3.45411L10.4191 3.00574L9.96073 1.63074C9.80193 1.15434 9.35606 0.833008 8.85393 0.833008H7.14826ZM5.83333 7.99967C5.83333 6.80307 6.8034 5.83301 8 5.83301C8.38766 5.83301 8.75013 5.93437 9.06393 6.11169C9.3044 6.24753 9.6094 6.16275 9.7452 5.92233C9.88106 5.68192 9.79626 5.37689 9.55587 5.24105C9.09593 4.98115 8.56447 4.83301 8 4.83301C6.2511 4.83301 4.83333 6.25077 4.83333 7.99967C4.83333 8.57561 4.98755 9.11707 5.25728 9.58334C5.32693 9.70374 5.44356 9.78967 5.57917 9.82054C5.71479 9.85141 5.85713 9.82441 5.97199 9.74594L6.9486 9.07927C7.17667 8.92361 7.23533 8.61247 7.0796 8.38441C6.92393 8.15634 6.61283 8.09767 6.38476 8.25341L5.91093 8.57687C5.86036 8.39334 5.83333 8.19987 5.83333 7.99967ZM10.7427 6.41598C10.6731 6.29559 10.5565 6.20965 10.4208 6.1788C10.2852 6.14795 10.1429 6.17497 10.028 6.25339L9.0514 6.92007C8.82333 7.07574 8.76466 7.38687 8.9204 7.61494C9.07607 7.84301 9.3872 7.90167 9.61526 7.74594L10.0891 7.42247C10.1397 7.60601 10.1667 7.79947 10.1667 7.99967C10.1667 9.19627 9.1966 10.1663 8 10.1663C7.61233 10.1663 7.24987 10.0649 6.93607 9.88767C6.69567 9.75181 6.39061 9.83661 6.25477 10.077C6.11893 10.3174 6.2037 10.6225 6.44412 10.7583C6.90407 11.0182 7.43553 11.1663 8 11.1663C9.74893 11.1663 11.1667 9.74861 11.1667 7.99967C11.1667 7.42374 11.0125 6.88227 10.7427 6.41598Z" fill="#C7801F"/>
</svg>
