<svg width="16" height="16" viewBox="0 0 16 16" fill="none" xmlns="http://www.w3.org/2000/svg">
<g clip-path="url(#clip0_14278_5020)">
<path fill-rule="evenodd" clip-rule="evenodd" d="M8.00004 0.833008C4.042 0.833008 0.833374 4.04163 0.833374 7.99967C0.833374 11.9577 4.042 15.1663 8.00004 15.1663C11.9581 15.1663 15.1667 11.9577 15.1667 7.99967C15.1667 4.04163 11.9581 0.833008 8.00004 0.833008ZM8.66671 5.33301C8.66671 4.96482 8.36824 4.66634 8.00004 4.66634C7.63184 4.66634 7.33337 4.96482 7.33337 5.33301V7.99967C7.33337 8.17647 7.40364 8.34607 7.52864 8.47107L8.86197 9.80441C9.12231 10.0647 9.54444 10.0647 9.80477 9.80441C10.0651 9.54407 10.0651 9.12194 9.80477 8.86161L8.66671 7.72354V5.33301Z" fill="#494B4C"/>
</g>
<defs>
<clipPath id="clip0_14278_5020">
<rect width="16" height="16" fill="white"/>
</clipPath>
</defs>
</svg>
