<svg width="16" height="16" viewBox="0 0 16 16" fill="none" xmlns="http://www.w3.org/2000/svg">
<g clip-path="url(#clip0_14278_6069)">
<path fill-rule="evenodd" clip-rule="evenodd" d="M0.833252 7.99967C0.833252 11.9577 4.04188 15.1663 7.99992 15.1663C11.958 15.1663 15.1666 11.9577 15.1666 7.99967C15.1666 4.04163 11.958 0.833008 7.99992 0.833008C4.04188 0.833008 0.833252 4.04163 0.833252 7.99967ZM5.52854 5.52825C5.7889 5.26791 6.21101 5.26793 6.47134 5.52829L7.99992 7.05701L9.52852 5.52829C9.78885 5.26793 10.2109 5.26791 10.4713 5.52825C10.7317 5.78858 10.7317 6.21069 10.4713 6.47105L8.94265 7.99987L10.4709 9.52827C10.7313 9.78867 10.7313 10.2107 10.4709 10.4711C10.2105 10.7314 9.78838 10.7314 9.52805 10.4711L7.99992 8.94274L6.47178 10.4711C6.21144 10.7314 5.78933 10.7314 5.52896 10.4711C5.2686 10.2107 5.26858 9.78867 5.52892 9.52827L7.05719 7.99987L5.52849 6.47105C5.26815 6.21069 5.26818 5.78858 5.52854 5.52825Z" fill="#CA4A4A"/>
</g>
<defs>
<clipPath id="clip0_14278_6069">
<rect width="16" height="16" fill="white"/>
</clipPath>
</defs>
</svg>
