<svg width="16" height="16" viewBox="0 0 16 16" fill="none" xmlns="http://www.w3.org/2000/svg">
<path fill-rule="evenodd" clip-rule="evenodd" d="M1.33325 5C1.33325 3.89543 2.22869 2.99999 3.33326 3L13.9998 3.00003C14.368 3.00003 14.6665 3.29851 14.6665 3.6667C14.6665 4.03489 14.368 4.33337 13.9998 4.33337L3.33325 4.33333C2.96507 4.33333 2.66659 4.63181 2.66659 5V8C2.66659 8.3682 2.36811 8.66667 1.99992 8.66667C1.63173 8.66667 1.33325 8.3682 1.33325 8V5Z" fill="#3981F8"/>
<path fill-rule="evenodd" clip-rule="evenodd" d="M11.862 1.52827C12.1223 1.26792 12.5445 1.26792 12.8048 1.52827L14.4715 3.19493C14.7318 3.45529 14.7318 3.87739 14.4715 4.13775L12.8048 5.80441C12.5445 6.06476 12.1223 6.06476 11.862 5.80441C11.6017 5.54406 11.6017 5.12195 11.862 4.8616L13.0573 3.66634L11.862 2.47108C11.6017 2.21073 11.6017 1.78862 11.862 1.52827Z" fill="#3981F8"/>
<path fill-rule="evenodd" clip-rule="evenodd" d="M4.13799 10.1952C4.39834 10.4556 4.39835 10.8777 4.138 11.138L2.94273 12.3333L4.13799 13.5286C4.39834 13.7889 4.39835 14.211 4.138 14.4714C3.87765 14.7317 3.45554 14.7317 3.19519 14.4714L1.52852 12.8048C1.40349 12.6797 1.33325 12.5102 1.33325 12.3334C1.33325 12.1566 1.40349 11.987 1.52851 11.862L3.19517 10.1952C3.45552 9.93492 3.87763 9.93492 4.13799 10.1952Z" fill="#3981F8"/>
<path fill-rule="evenodd" clip-rule="evenodd" d="M13.9999 8C14.3681 8 14.6666 8.29847 14.6666 8.66667V11C14.6666 12.1046 13.7712 13 12.6667 13L1.99993 13.0002C1.63174 13.0002 1.33326 12.7017 1.33325 12.3336C1.33325 11.9654 1.63172 11.6669 1.99991 11.6669L12.6666 11.6667C13.0348 11.6667 13.3333 11.3682 13.3333 11V8.66667C13.3333 8.29847 13.6317 8 13.9999 8Z" fill="#3981F8"/>
</svg>
