<svg width="16" height="16" viewBox="0 0 16 16" fill="none" xmlns="http://www.w3.org/2000/svg">
<g clip-path="url(#clip0_14278_5026)">
<path fill-rule="evenodd" clip-rule="evenodd" d="M8.00004 0.833008C4.042 0.833008 0.833374 4.04163 0.833374 7.99971C0.833374 11.9577 4.04199 15.1664 8.00004 15.1664C11.958 15.1664 15.1667 11.9577 15.1667 7.99971C15.1667 4.04163 11.958 0.833008 8.00004 0.833008ZM8.00004 4.66634C6.15909 4.66634 4.66671 6.15873 4.66671 7.99971C4.66671 9.84064 6.15909 11.333 8.00004 11.333C8.67944 11.333 9.31131 11.1298 9.83831 10.7808L10.862 11.8044C11.1223 12.0648 11.5444 12.0648 11.8048 11.8044C12.0651 11.544 12.0651 11.122 11.8048 10.8616L10.7811 9.83791C11.1301 9.31097 11.3334 8.67904 11.3334 7.99971C11.3334 6.15873 9.84097 4.66634 8.00004 4.66634ZM6.00004 7.99971C6.00004 6.89511 6.89544 5.99967 8.00004 5.99967C9.10457 5.99967 10 6.89511 10 7.99971C10 9.10424 9.10457 9.99971 8.00004 9.99971C6.89544 9.99971 6.00004 9.10424 6.00004 7.99971Z" fill="#BD2F77"/>
</g>
<defs>
<clipPath id="clip0_14278_5026">
<rect width="16" height="16" fill="white"/>
</clipPath>
</defs>
</svg>
