<svg width="16" height="16" viewBox="0 0 16 16" fill="none" xmlns="http://www.w3.org/2000/svg">
<path fill-rule="evenodd" clip-rule="evenodd" d="M7.83329 15.0003C3.87525 15.0003 0.666626 11.7917 0.666626 7.83366C0.666626 3.87562 3.87525 0.666992 7.83329 0.666992C9.13783 0.666992 10.3624 1.016 11.417 1.62607C11.8384 1.86981 12.5315 2.33085 13.1978 3.07469C12.6316 3.42373 12.0821 3.86317 11.5656 4.33771C10.7208 5.11385 9.92502 6.02077 9.24329 6.87686C8.56029 7.73466 7.98356 8.55179 7.57776 9.15399L7.51923 9.24113C7.12323 8.69079 6.71243 8.30786 6.35057 8.04466C6.08043 7.84819 5.84129 7.72119 5.6615 7.64132C5.57166 7.60139 5.49667 7.57319 5.44005 7.55399C5.41174 7.54446 5.388 7.53706 5.36927 7.53159C5.3599 7.52886 5.35178 7.52659 5.34497 7.52472L5.33573 7.52226L5.33185 7.52126L5.3301 7.52079L5.32927 7.52059C5.32927 7.52059 5.34497 7.52472 5.32847 7.52039C4.97128 7.43113 4.60932 7.64826 4.52002 8.00546C4.43151 8.35953 4.64409 8.71826 4.99567 8.81152C4.99797 8.81219 5.00348 8.81386 5.012 8.81679C5.03221 8.82366 5.0692 8.83712 5.11999 8.85972C5.22145 8.90479 5.37814 8.98612 5.56633 9.12299C5.93953 9.39439 6.45228 9.89552 6.90383 10.7987C7.01243 11.0158 7.23043 11.1567 7.47296 11.1666C7.71549 11.1765 7.94456 11.0533 8.07043 10.8458L8.07203 10.8431L8.07916 10.8314L8.10909 10.783C8.13576 10.7399 8.17589 10.6758 8.22836 10.5933C8.33336 10.4281 8.48776 10.1896 8.68349 9.89906C9.07549 9.31726 9.63116 8.53026 10.2864 7.70746C10.9428 6.88299 11.6912 6.03301 12.4677 5.31956C12.9858 4.84353 13.4998 4.44401 13.9925 4.15217C14.3648 4.77401 14.6774 5.51817 14.8566 6.40086C14.9507 6.86426 15 7.34346 15 7.83366C15 11.7917 11.7914 15.0003 7.83329 15.0003Z" fill="#1CAD7F"/>
</svg>
