<svg width="25" height="24" viewBox="0 0 25 24" fill="none" xmlns="http://www.w3.org/2000/svg">
<path d="M12.875 14.5V13C12.875 12.4477 13.3227 12 13.875 12H21.375M19.375 15H20.875C21.4273 15 21.875 15.4477 21.875 16V20C21.875 20.5523 21.4273 21 20.875 21H19.375M18.875 18.5C18.875 17.9477 18.4273 17.5 17.875 17.5H16.875C16.3227 17.5 15.875 17.0523 15.875 16.5V15M12.875 17.5V19.5M15.375 21H16.375" stroke="#3981F8" stroke-width="1.5" stroke-linecap="round" stroke-linejoin="round"/>
<path d="M3.875 12H9.875" stroke="#3981F8" stroke-width="1.5" stroke-linecap="round" stroke-linejoin="round"/>
<path d="M12.875 3V8" stroke="#3981F8" stroke-width="1.5" stroke-linecap="round" stroke-linejoin="round"/>
<path d="M9.875 8V4C9.875 3.44772 9.42728 3 8.875 3H4.875C4.32272 3 3.875 3.44772 3.875 4V8C3.875 8.55228 4.32272 9 4.875 9H8.875C9.42728 9 9.875 8.55228 9.875 8Z" stroke="#3981F8" stroke-width="1.5"/>
<path d="M9.875 20V16C9.875 15.4477 9.42728 15 8.875 15H4.875C4.32272 15 3.875 15.4477 3.875 16V20C3.875 20.5523 4.32272 21 4.875 21H8.875C9.42728 21 9.875 20.5523 9.875 20Z" stroke="#3981F8" stroke-width="1.5"/>
<path d="M21.875 8V4C21.875 3.44772 21.4273 3 20.875 3H16.875C16.3227 3 15.875 3.44772 15.875 4V8C15.875 8.55228 16.3227 9 16.875 9H20.875C21.4273 9 21.875 8.55228 21.875 8Z" stroke="#3981F8" stroke-width="1.5"/>
</svg>
