<svg width="25" height="24" viewBox="0 0 25 24" fill="none" xmlns="http://www.w3.org/2000/svg">
<path d="M8.875 21.5C12.1887 21.5 14.875 18.8137 14.875 15.5C14.875 12.1863 12.1887 9.5 8.875 9.5C5.56129 9.5 2.875 12.1863 2.875 15.5C2.875 18.8137 5.56129 21.5 8.875 21.5Z" stroke="#3981F8" stroke-width="1.5" stroke-linejoin="round"/>
<path d="M9.875 6.66771C10.705 4.24313 13.0037 2.5 15.7096 2.5C19.1146 2.5 21.875 5.26035 21.875 8.66542C21.875 11.3713 20.1319 13.67 17.7073 14.5" stroke="#3981F8" stroke-width="1.5" stroke-linecap="round" stroke-linejoin="round"/>
<path d="M2.875 8.5V5.5C2.875 4.39543 3.77043 3.5 4.875 3.5H7.875L6.375 5.5" stroke="#3981F8" stroke-width="1.5" stroke-linecap="round" stroke-linejoin="round"/>
<path d="M21.875 15.5V18.5C21.875 19.6046 20.9796 20.5 19.875 20.5H16.875L18.375 18.5" stroke="#3981F8" stroke-width="1.5" stroke-linecap="round" stroke-linejoin="round"/>
</svg>
