<svg width="25" height="24" viewBox="0 0 25 24" fill="none" xmlns="http://www.w3.org/2000/svg">
<path d="M15.625 13.5C18.9387 13.5 21.625 12.6046 21.625 11.5C21.625 10.3954 18.9387 9.5 15.625 9.5C12.3113 9.5 9.625 10.3954 9.625 11.5C9.625 12.6046 12.3113 13.5 15.625 13.5Z" stroke="#3981F8" stroke-width="1.5"/>
<path d="M8.625 6.5C11.9387 6.5 14.625 5.60457 14.625 4.5C14.625 3.39543 11.9387 2.5 8.625 2.5C5.31129 2.5 2.625 3.39543 2.625 4.5C2.625 5.60457 5.31129 6.5 8.625 6.5Z" stroke="#3981F8" stroke-width="1.5"/>
<path d="M2.625 8.5C2.625 9.42335 4.29462 10.2089 6.625 10.5" stroke="#3981F8" stroke-width="1.5" stroke-linecap="round"/>
<path d="M2.625 12.5C2.625 13.4234 4.29462 14.2089 6.625 14.5" stroke="#3981F8" stroke-width="1.5" stroke-linecap="round"/>
<path d="M2.625 4.5V16.5C2.625 17.3708 4.29462 18.2254 6.625 18.5" stroke="#3981F8" stroke-width="1.5" stroke-linecap="round"/>
<path d="M21.625 11.5V19.5C21.625 20.6046 18.9387 21.5 15.625 21.5C12.3113 21.5 9.625 20.6046 9.625 19.5V11.5" stroke="#3981F8" stroke-width="1.5"/>
<path d="M21.625 15.5C21.625 16.6046 18.9388 17.5 15.625 17.5C12.3112 17.5 9.625 16.6046 9.625 15.5" stroke="#3981F8" stroke-width="1.5" stroke-linecap="round"/>
</svg>
